<svg xmlns="http://www.w3.org/2000/svg" viewBox="0 0 640 360" role="img" aria-labelledby="title desc">
  <title id="title">Student Spotlight on WeChat</title>
  <desc id="desc">A warm green editorial illustration with a spotlight and conversation bubbles.</desc>
  <defs>
    <linearGradient id="bg2" x1="0" y1="1" x2="1" y2="0">
      <stop offset="0" stop-color="#1b574f"/>
      <stop offset="1" stop-color="#70ad79"/>
    </linearGradient>
    <linearGradient id="beam" x1="0" y1="0" x2="1" y2="1">
      <stop stop-color="#fff" stop-opacity=".34"/>
      <stop offset="1" stop-color="#fff" stop-opacity="0"/>
    </linearGradient>
  </defs>
  <rect width="640" height="360" fill="url(#bg2)"/>
  <path d="M640 0 262 360H90L488 0Z" fill="url(#beam)"/>
  <g fill="none" stroke="#e8f4e8" stroke-opacity=".18">
    <path d="M20 302c116-86 219-103 310-51s189 51 290-3"/>
    <path d="M20 326c116-86 219-103 310-51s189 51 290-3"/>
  </g>
  <g transform="translate(390 58)">
    <path d="M0 47C0 21 25 0 56 0h92c31 0 56 21 56 47v52c0 26-25 47-56 47H91l-39 31 9-31h-5C25 146 0 125 0 99V47Z" fill="#fff"/>
    <circle cx="62" cy="72" r="8" fill="#4d916c"/><circle cx="102" cy="72" r="8" fill="#4d916c"/><circle cx="142" cy="72" r="8" fill="#4d916c"/>
  </g>
  <text x="54" y="200" fill="#fff" font-family="Georgia, serif" font-size="39" font-weight="600">Student Spotlight</text>
  <text x="57" y="238" fill="#e4f2e8" font-family="Arial, sans-serif" font-size="17" letter-spacing="3">WECHAT FEATURE</text>
</svg>

